<?xml version="1.0" standalone="no"?>
<!DOCTYPE svg PUBLIC "-//W3C//DTD SVG 20010904//EN"
 "http://www.w3.org/TR/2001/REC-SVG-20010904/DTD/svg10.dtd">
<svg version="1.0" xmlns="http://www.w3.org/2000/svg"
 width="100.000000pt" height="100.000000pt" viewBox="0 0 100.000000 100.000000"
 preserveAspectRatio="xMidYMid meet">

<g transform="translate(0.000000,100.000000) scale(0.100000,-0.100000)"
fill="#000000" stroke="none">
<path d="M471 553 c-113 -320 -119 -333 -147 -333 -15 0 -24 -6 -24 -15 0 -12
16 -15 85 -15 69 0 85 3 85 15 0 10 -10 15 -29 15 -40 0 -45 22 -20 97 l21 63
103 0 103 0 22 -65 c25 -74 22 -95 -15 -95 -16 0 -25 -6 -25 -15 0 -13 14 -15
87 -13 55 2 88 7 90 15 3 7 -8 13 -24 15 -27 3 -31 11 -118 256 -115 322 -107
319 -194 75z m122 -16 l45 -127 -89 0 c-49 0 -89 3 -89 7 0 10 84 252 87 249
1 -1 22 -59 46 -129z"/>
</g>
</svg>
